# xmcd CD database file
#
# Track frame offsets:
#	150
#	10905
#	26260
#	37420
#	49230
#	62417
#	72607
#	81952
#	94935
#	109676
#	119572
#	130127
#	147412
#	156622
#	167712
#	179295
#	190254
#	204415
#
# Disc length: 2897 seconds
#
# Revision: 8
# Processed by: cddbd v1.5.2PL0 Copyright (c) Steve Scherf et al.
# Submitted via: CDex 1.79
#
DISCID=0b0b4f12
DTITLE=Cale, J.J. - Classic - The Universal Masters Collection
DYEAR=1999
DGENRE=Rock
TTITLE0=After Midnight
TTITLE1=Magnolia
TTITLE2=Crazy Mama
TTITLE3=Call Me The Breeze
TTITLE4=Lies
TTITLE5=Cajun Moon
TTITLE6=Rock And Roll Records
TTITLE7=Cocaine
TTITLE8=Hey Baby
TTITLE9=Don't Cry Sister
TTITLE10=Carry On
TTITLE11=Mama Don't
TTITLE12=Devil In Disguise
TTITLE13=Downtown L.A.
TTITLE14=Shanghaid
TTITLE15=Change Your Mind
TTITLE16=Lonesome Train
TTITLE17=Long Way Home
EXTD=YEAR: 1999
EXTT0=
EXTT1=
EXTT2=
EXTT3=
EXTT4=
EXTT5=
EXTT6=
EXTT7=
EXTT8=
EXTT9=
EXTT10=
EXTT11=
EXTT12=
EXTT13=
EXTT14=
EXTT15=
EXTT16=
EXTT17=
PLAYORDER=
